Plode-Italic.ufo
<glyph name="_arrowhead.left" format="1">
  <advance width="600"/>
  <outline>
    <contour>
      <point x="99" y="306" type="line" name="hr00"/>
      <point x="397" y="8" type="line"/>
      <point x="445" y="56" type="line"/>
      <point x="268" y="233" type="line"/>
      <point x="182" y="306" type="line"/>
      <point x="268" y="379" type="line"/>
      <point x="445" y="556" type="line"/>
      <point x="397" y="604" type="line"/>
    </contour>
  </outline>
</glyph>
<glyph name="_arrowhead.right" format="1">
  <advance width="600"/>
  <outline>
    <contour>
      <point x="501" y="306" type="line" name="hr00"/>
      <point x="203" y="604" type="line"/>
      <point x="155" y="556" type="line"/>
      <point x="332" y="379" type="line"/>
      <point x="418" y="306" type="line"/>
      <point x="332" y="233" type="line"/>
      <point x="155" y="56" type="line"/>
      <point x="203" y="8" type="line"/>
    </contour>
  </outline>
</glyph>
<glyph name="ampersand_ampersand.liga" format="1">
  <advance width="1200"/>
  <outline>
    <contour>
      <point x="261" y="-12" type="curve" smooth="yes" name="hr00"/>
      <point x="326" y="-12"/>
      <point x="397" y="17"/>
      <point x="414" y="135" type="curve"/>
      <point x="419" y="135" type="line"/>
      <point x="450" y="37"/>
      <point x="483" y="-12"/>
      <point x="540" y="-12" type="curve" smooth="yes"/>
      <point x="579" y="-12"/>
      <point x="606" y="9"/>
      <point x="635" y="67" type="curve" smooth="yes"/>
      <point x="639" y="75"/>
      <point x="641" y="82"/>
      <point x="641" y="89" type="curve"/>
      <point x="586" y="115" type="line"/>
      <point x="552" y="59" type="line"/>
      <point x="535" y="59" type="line"/>
      <point x="398" y="327" type="line"/>
      <point x="517" y="347"/>
      <point x="595" y="416"/>
      <point x="595" y="542" type="curve" smooth="yes"/>
      <point x="595" y="655"/>
      <point x="526" y="710"/>
      <point x="430" y="710" type="curve" smooth="yes"/>
      <point x="322" y="710"/>
      <point x="244" y="640"/>
      <point x="244" y="531" type="curve" smooth="yes"/>
      <point x="244" y="486"/>
      <point x="257" y="449"/>
      <point x="287" y="388" type="curve"/>
      <point x="136" y="376"/>
      <point x="98" y="261"/>
      <point x="98" y="171" type="curve" smooth="yes"/>
      <point x="98" y="65"/>
      <point x="156" y="-12"/>
    </contour>
    <contour>
      <point x="273" y="56" type="curve" smooth="yes"/>
      <point x="212" y="56"/>
      <point x="181" y="89"/>
      <point x="181" y="175" type="curve" smooth="yes"/>
      <point x="181" y="190"/>
      <point x="182" y="212"/>
      <point x="186" y="233" type="curve" smooth="yes"/>
      <point x="195" y="281"/>
      <point x="213" y="336"/>
      <point x="306" y="349" type="curve"/>
      <point x="395" y="166" type="line"/>
      <point x="382" y="105"/>
      <point x="348" y="56"/>
    </contour>
    <contour>
      <point x="424" y="645" type="curve" smooth="yes"/>
      <point x="478" y="645"/>
      <point x="516" y="618"/>
      <point x="516" y="539" type="curve" smooth="yes"/>
      <point x="516" y="521"/>
      <point x="514" y="492"/>
      <point x="505" y="466" type="curve" smooth="yes"/>
      <point x="487" y="415"/>
      <point x="446" y="380"/>
      <point x="380" y="364" type="curve"/>
      <point x="369" y="385" type="line" smooth="yes"/>
      <point x="336" y="448"/>
      <point x="322" y="489"/>
      <point x="322" y="533" type="curve" smooth="yes"/>
      <point x="322" y="611"/>
      <point x="364" y="645"/>
    </contour>
    <component base="ampersand" xOffset="548"/>
  </outline>
</glyph>
<glyph name="colon_equal.liga" format="1">
  <advance width="1200"/>
  <outline>
    <contour>
      <point x="1073" y="373" type="line" name="hr00"/>
      <point x="1084" y="439" type="line"/>
      <point x="493" y="439" type="line"/>
      <point x="482" y="373" type="line"/>
    </contour>
    <contour>
      <point x="1051" y="174" type="line"/>
      <point x="1062" y="240" type="line"/>
      <point x="461" y="240" type="line"/>
      <point x="450" y="174" type="line"/>
    </contour>
    <component base="period" xOffset="-13" yOffset="387"/>
    <component base="period" xOffset="-59" yOffset="108"/>
  </outline>
</glyph>
<glyph name="equal_colon_equal.liga" format="1">
  <advance width="1800"/>
  <outline>
    <contour>
      <point x="675" y="373" type="line" name="hr00"/>
      <point x="686" y="439" type="line"/>
      <point x="95" y="439" type="line"/>
      <point x="84" y="373" type="line"/>
    </contour>
    <contour>
      <point x="653" y="174" type="line"/>
      <point x="664" y="240" type="line"/>
      <point x="63" y="240" type="line"/>
      <point x="52" y="174" type="line"/>
    </contour>
    <contour>
      <point x="1743" y="373" type="line" name="hr00"/>
      <point x="1754" y="439" type="line"/>
      <point x="1163" y="439" type="line"/>
      <point x="1152" y="373" type="line"/>
    </contour>
    <contour>
      <point x="1721" y="174" type="line"/>
      <point x="1732" y="240" type="line"/>
      <point x="1131" y="240" type="line"/>
      <point x="1120" y="174" type="line"/>
    </contour>
    <component base="period" xOffset="657" yOffset="387"/>
    <component base="period" xOffset="611" yOffset="108"/>
  </outline>
</glyph>
<glyph name="equal_equal.liga" format="1">
  <advance width="1200"/>
  <outline>
    <contour>
      <point x="1155" y="373" type="line" name="hr00"/>
      <point x="1166" y="439" type="line"/>
      <point x="95" y="439" type="line"/>
      <point x="84" y="373" type="line"/>
    </contour>
    <contour>
      <point x="1122" y="174" type="line"/>
      <point x="1133" y="240" type="line"/>
      <point x="62" y="240" type="line"/>
      <point x="51" y="174" type="line"/>
    </contour>
  </outline>
</glyph>
<glyph name="equal_equal_equal.liga" format="1">
  <advance width="1800"/>
  <outline>
    <contour>
      <point x="1705" y="273" type="line" name="hr00"/>
      <point x="1716" y="339" type="line"/>
      <point x="95" y="339" type="line"/>
      <point x="84" y="273" type="line"/>
    </contour>
    <contour>
      <point x="1671" y="74" type="line"/>
      <point x="1682" y="140" type="line"/>
      <point x="62" y="140" type="line"/>
      <point x="51" y="74" type="line"/>
    </contour>
    <contour>
      <point x="1738" y="472" type="line" name="hr00"/>
      <point x="1749" y="538" type="line"/>
      <point x="128" y="538" type="line"/>
      <point x="117" y="472" type="line"/>
    </contour>
  </outline>
</glyph>
<glyph name="equal_equal_greater.liga" format="1">
  <advance width="1800"/>
  <outline>
    <contour>
      <point x="1534" y="378" type="line" name="hr00"/>
      <point x="1534" y="434" type="line"/>
      <point x="1438" y="440" type="line"/>
      <point x="119" y="440" type="line"/>
      <point x="119" y="372" type="line"/>
      <point x="1438" y="372" type="line"/>
    </contour>
    <contour>
      <point x="1534" y="178" type="line"/>
      <point x="1534" y="234" type="line"/>
      <point x="1438" y="240" type="line"/>
      <point x="119" y="240" type="line"/>
      <point x="119" y="172" type="line"/>
      <point x="1438" y="172" type="line"/>
    </contour>
    <component base="_arrowhead.right" xOffset="1200"/>
  </outline>
</glyph>
<glyph name="exclam_equal.liga" format="1">
  <advance width="1200"/>
  <outline>
    <contour>
      <point x="465" y="-3" type="line" name="hr00"/>
      <point x="807" y="615" type="line"/>
      <point x="734" y="615" type="line"/>
      <point x="393" y="-3" type="line"/>
    </contour>
    <component base="equal_equal.liga"/>
  </outline>
</glyph>
<glyph name="exclam_equal_equal.liga" format="1">
  <advance width="1800"/>
  <outline>
    <contour>
      <point x="717" y="-103" type="line" name="hr00"/>
      <point x="1169" y="715" type="line"/>
      <point x="1096" y="715" type="line"/>
      <point x="645" y="-103" type="line"/>
    </contour>
    <component base="equal_equal_equal.liga"/>
  </outline>
</glyph>
<glyph name="greater_equal.liga" format="1">
  <advance width="1200"/>
  <outline>
    <contour>
      <point x="449" y="610" type="line"/>
      <point x="434" y="531" type="line"/>
      <point x="759" y="376" type="line"/>
      <point x="758" y="369" type="line"/>
      <point x="377" y="216" type="line"/>
      <point x="364" y="141" type="line"/>
      <point x="824" y="333" type="line"/>
      <point x="839" y="418" type="line"/>
    </contour>
    <contour>
      <point x="345" y="31" type="line"/>
      <point x="332" y="-44" type="line"/>
      <point x="793" y="148" type="line"/>
      <point x="805" y="216" type="line"/>
    </contour>
  </outline>
</glyph>
<glyph name="greater_greater_equal.liga" format="1">
  <advance width="1800"/>
  <outline>
    <contour>
      <point x="594" y="172" type="line"/>
      <point x="1681" y="172" type="line"/>
      <point x="1681" y="240" type="line"/>
      <point x="567" y="240" type="line"/>
      <point x="382" y="56" type="line"/>
      <point x="430" y="8" type="line"/>
    </contour>
    <contour>
      <point x="594" y="440" type="line"/>
      <point x="430" y="604" type="line"/>
      <point x="382" y="556" type="line"/>
      <point x="567" y="372" type="line"/>
      <point x="1681" y="372" type="line" name="hr00"/>
      <point x="1681" y="440" type="line"/>
    </contour>
    <component base="_arrowhead.right" xOffset="-56"/>
  </outline>
</glyph>
<glyph name="greater_greater_hyphen.liga" format="1">
  <advance width="1800"/>
  <outline>
    <contour>
      <point x="1681" y="272" type="line"/>
      <point x="1681" y="340" type="line"/>
      <point x="644" y="340" type="line"/>
      <point x="644" y="272" type="line"/>
    </contour>
    <component base="_arrowhead.right" xOffset="227"/>
    <component base="_arrowhead.right" xOffset="-56"/>
  </outline>
</glyph>
<glyph name="hyphen_hyphen_greater.liga" format="1">
  <advance width="1800"/>
  <outline>
    <contour>
      <point x="1642" y="262" type="line" name="hr00"/>
      <point x="1656" y="346" type="line"/>
      <point x="171" y="346" type="line"/>
      <point x="157" y="262" type="line"/>
    </contour>
    <component base="greater" xOffset="1200"/>
  </outline>
</glyph>
<glyph name="hyphen_less.liga" format="1">
  <advance width="1200"/>
  <outline>
    <contour>
      <point x="119" y="272" type="line"/>
      <point x="839" y="272" type="line"/>
      <point x="839" y="340" type="line"/>
      <point x="119" y="340" type="line"/>
    </contour>
    <component base="_arrowhead.left" xOffset="656"/>
  </outline>
</glyph>
<glyph name="less_equal.liga" format="1">
  <advance width="1200"/>
  <outline>
    <contour>
      <point x="869" y="610" type="line"/>
      <point x="412" y="418" type="line"/>
      <point x="398" y="333" type="line"/>
      <point x="792" y="141" type="line"/>
      <point x="805" y="216" type="line"/>
      <point x="477" y="369" type="line"/>
      <point x="478" y="376" type="line"/>
      <point x="856" y="531" type="line"/>
    </contour>
    <contour>
      <point x="773" y="31" type="line"/>
      <point x="377" y="216" type="line"/>
      <point x="366" y="148" type="line"/>
      <point x="760" y="-44" type="line"/>
    </contour>
  </outline>
</glyph>
<glyph name="less_equal_equal_greater.liga" format="1">
  <advance width="2400"/>
  <outline>
    <contour>
      <point x="362" y="172" type="line"/>
      <point x="2038" y="172" type="line"/>
      <point x="2134" y="178" type="line" name="hr00"/>
      <point x="2134" y="234" type="line"/>
      <point x="2038" y="240" type="line"/>
      <point x="362" y="240" type="line"/>
      <point x="266" y="234" type="line"/>
      <point x="266" y="178" type="line" name="hr00"/>
    </contour>
    <contour>
      <point x="362" y="372" type="line"/>
      <point x="2038" y="372" type="line"/>
      <point x="2134" y="378" type="line" name="hr00"/>
      <point x="2134" y="434" type="line"/>
      <point x="2038" y="440" type="line"/>
      <point x="362" y="440" type="line"/>
      <point x="266" y="434" type="line"/>
      <point x="266" y="378" type="line" name="hr00"/>
    </contour>
    <component base="_arrowhead.right" xOffset="1800"/>
    <component base="_arrowhead.left"/>
  </outline>
</glyph>
<glyph name="less_exclam_hyphen_hyphen.liga" format="1">
  <advance width="2400"/>
  <outline>
    <contour>
      <point x="2279" y="263" type="line" name="hr00"/>
      <point x="2293" y="345" type="line"/>
      <point x="1107" y="345" type="line"/>
      <point x="1093" y="263" type="line"/>
    </contour>
    <contour>
      <point x="703" y="263" type="line" name="hr00"/>
      <point x="717" y="345" type="line"/>
      <point x="171" y="345" type="line"/>
      <point x="157" y="263" type="line"/>
    </contour>
    <component base="less"/>
    <component base="exclam" xOffset="600"/>
  </outline>
</glyph>
<glyph name="less_hyphen.liga" format="1">
  <advance width="1200"/>
  <outline>
    <contour>
      <point x="221" y="278" type="line"/>
      <point x="317" y="272" type="line"/>
      <point x="1081" y="272" type="line"/>
      <point x="1081" y="340" type="line"/>
      <point x="317" y="340" type="line"/>
      <point x="221" y="334" type="line"/>
      <point x="218" y="338" type="line"/>
      <point x="180" y="306" type="line"/>
      <point x="218" y="274" type="line"/>
    </contour>
    <component base="_arrowhead.left"/>
  </outline>
</glyph>
<glyph name="less_slash.liga" format="1">
  <advance width="1200"/>
  <outline>
    <contour>
      <point x="601" y="-63" type="line" name="hr00"/>
      <point x="636" y="0" type="line"/>
      <point x="167" y="297" type="line"/>
      <point x="168" y="305" type="line"/>
      <point x="555" y="508" type="line"/>
      <point x="569" y="593" type="line"/>
      <point x="101" y="344" type="line"/>
      <point x="88" y="268" type="line"/>
    </contour>
    <component base="slash" xOffset="500"/>
  </outline>
</glyph>
<glyph name="less_slash_greater.liga" format="1">
  <advance width="1800"/>
  <outline>
    <contour>
      <point x="1116" y="676" type="line" name="hr00"/>
      <point x="1081" y="613" type="line"/>
      <point x="1550" y="316" type="line"/>
      <point x="1549" y="308" type="line"/>
      <point x="1162" y="105" type="line"/>
      <point x="1148" y="20" type="line"/>
      <point x="1616" y="269" type="line"/>
      <point x="1629" y="345" type="line"/>
    </contour>
    <contour>
      <point x="701" y="-63" type="line" name="hr00"/>
      <point x="736" y="0" type="line"/>
      <point x="267" y="297" type="line"/>
      <point x="268" y="305" type="line"/>
      <point x="655" y="508" type="line"/>
      <point x="669" y="593" type="line"/>
      <point x="201" y="344" type="line"/>
      <point x="188" y="268" type="line"/>
    </contour>
    <component base="slash" xOffset="600"/>
  </outline>
</glyph>
<glyph name="numbersign_numbersign.liga" format="1">
  <advance width="1200"/>
  <outline>
    <contour>
      <point x="619" y="481" type="line"/>
      <point x="608" y="417" type="line"/>
      <point x="681" y="417" type="line"/>
      <point x="692" y="481" type="line"/>
    </contour>
    <contour>
      <point x="550" y="281" type="line"/>
      <point x="539" y="217" type="line"/>
      <point x="612" y="217" type="line"/>
      <point x="623" y="281" type="line"/>
    </contour>
    <component base="numbersign" xOffset="600"/>
    <component base="numbersign"/>
  </outline>
</glyph>
<glyph name="numbersign_numbersign_numbersign.liga" format="1">
  <advance width="1800"/>
  <outline>
    <contour>
      <point x="619" y="481" type="line"/>
      <point x="608" y="417" type="line"/>
      <point x="681" y="417" type="line"/>
      <point x="692" y="481" type="line"/>
    </contour>
    <contour>
      <point x="550" y="281" type="line"/>
      <point x="539" y="217" type="line"/>
      <point x="612" y="217" type="line"/>
      <point x="623" y="281" type="line"/>
    </contour>
    <contour>
      <point x="1219" y="481" type="line"/>
      <point x="1208" y="417" type="line"/>
      <point x="1281" y="417" type="line"/>
      <point x="1292" y="481" type="line"/>
    </contour>
    <contour>
      <point x="1150" y="281" type="line"/>
      <point x="1139" y="217" type="line"/>
      <point x="1212" y="217" type="line"/>
      <point x="1223" y="281" type="line"/>
    </contour>
    <component base="numbersign" xOffset="600"/>
    <component base="numbersign" xOffset="1200"/>
    <component base="numbersign"/>
  </outline>
</glyph>
<glyph name="numbersign_numbersign_numbersign_numbersign.liga" format="1">
  <advance width="2400"/>
  <outline>
    <contour>
      <point x="619" y="481" type="line"/>
      <point x="608" y="417" type="line"/>
      <point x="681" y="417" type="line"/>
      <point x="692" y="481" type="line"/>
    </contour>
    <contour>
      <point x="550" y="281" type="line"/>
      <point x="539" y="217" type="line"/>
      <point x="612" y="217" type="line"/>
      <point x="623" y="281" type="line"/>
    </contour>
    <contour>
      <point x="1219" y="481" type="line"/>
      <point x="1208" y="417" type="line"/>
      <point x="1281" y="417" type="line"/>
      <point x="1292" y="481" type="line"/>
    </contour>
    <contour>
      <point x="1150" y="281" type="line"/>
      <point x="1139" y="217" type="line"/>
      <point x="1212" y="217" type="line"/>
      <point x="1223" y="281" type="line"/>
    </contour>
    <contour>
      <point x="1819" y="481" type="line"/>
      <point x="1808" y="417" type="line"/>
      <point x="1881" y="417" type="line"/>
      <point x="1892" y="481" type="line"/>
    </contour>
    <contour>
      <point x="1750" y="281" type="line"/>
      <point x="1739" y="217" type="line"/>
      <point x="1812" y="217" type="line"/>
      <point x="1823" y="281" type="line"/>
    </contour>
    <component base="numbersign" xOffset="600"/>
    <component base="numbersign" xOffset="1200"/>
    <component base="numbersign" xOffset="1800"/>
    <component base="numbersign"/>
  </outline>
</glyph>
<glyph name="slash_equal.liga" format="1">
  <advance width="1200"/>
  <outline>
    <contour>
      <point x="93" y="-3" type="line" name="hr00"/>
      <point x="435" y="615" type="line"/>
      <point x="362" y="615" type="line"/>
      <point x="21" y="-3" type="line"/>
    </contour>
    <component base="equal_equal.liga"/>
  </outline>
</glyph>
<glyph name="slash_greater.liga" format="1">
  <advance width="1200"/>
  <outline>
    <contour>
      <point x="616" y="676" type="line" name="hr00"/>
      <point x="581" y="613" type="line"/>
      <point x="1050" y="316" type="line"/>
      <point x="1049" y="308" type="line"/>
      <point x="662" y="105" type="line"/>
      <point x="648" y="20" type="line"/>
      <point x="1116" y="269" type="line"/>
      <point x="1129" y="345" type="line"/>
    </contour>
    <component base="slash" xOffset="100"/>
  </outline>
</glyph>
<glyph name="underscore_underscore.liga" format="1">
  <advance width="1200"/>
  <outline>
    <contour>
      <point x="1077" y="-167" type="line" name="hr00"/>
      <point x="1089" y="-95" type="line"/>
      <point x="14" y="-95" type="line"/>
      <point x="2" y="-167" type="line"/>
    </contour>
  </outline>
</glyph>
